<?xml version="1.0" encoding="utf-8"?>
<svg version="1.1" xmlns="http://www.w3.org/2000/svg" xmlns:xlink="http://www.w3.org/1999/xlink" x="0px" y="0px" viewBox="0 0 1000 1000" enable-background="new 0 0 1000 1000" xml:space="preserve">
    <g fill="#ffff">
        
        <path d="M517.1,330.2c131.6,23,252.3,51.9,343.3,81.5c36.1,11.8,63.5,22.3,84.4,32L595.1,45.8c-12.7-14.5-36.8-18.8-53.8-9.5l-461.5,252c14-1.1,30-1.7,48.9-1.7h3.8v3C220,289.5,368.8,304.4,517.1,330.2z" />
        <path d="M973.5,479.8c-54.5-39.5-238.6-93.5-461.3-132.3C359.4,320.8,221.3,307,128.7,307c-35.9,0-64.8,2.1-85.2,6.3c-20.2,4.1-31.9,10.4-33.4,18.7c-5.4,30.8,129.1,81.2,320.6,124.2c0.3,3,0.5,6,0.9,9.1c0.3,2.8,0.6,5.8,0.9,8.7c1.9,18.2,4.4,37.7,7.6,57.6c5.5,34.7,15.3,83.6,30.5,119.2c4.1,9.6,8.4,17.7,13,24.5c-0.4,2.3-0.7,4.7-0.7,7.2c0,11,4.7,20.8,12.1,27.8v170.9c0,4.8,3.9,8.7,8.7,8.7s8.8-3.9,8.8-8.7V719.7c0.4,0.1,0.6,0.2,1,0.3l6.5,235.7c0.1,4.7,4,12.9,8.7,12.9c0.1,0,0.2,0,0.2,0c4.8-17.5,8.6-8.3,8.5-13.1l-6.5-236.1c11.3-3,20.5-10.9,25.2-21.4c65.6-9,124-71.4,152.3-129.8c0.2-0.5,7.5-18.3,15.5-42.5c0.9-2.6,1.7-5.4,2.6-8.1c0.9-2.8,1.8-5.6,2.7-8.5c95.2,12.4,179.2,18.8,242,18.8c71.3,0,115.6-8.2,118.6-25C991,496.1,985.2,488.3,973.5,479.8z M609,515.2c-0.9,2.8-1.7,5.5-2.6,8.1c-6,18.3-11.5,32.7-13.7,37.2c-23.9,49.2-74.7,108.3-133.5,119.2c-0.1-1.5-0.2-3-0.5-4.4c72.9-22.1,113.7-83.6,135.4-153.7c0.8-2.7,1.7-5.4,2.5-8.1c0.8-2.8,1.5-5.7,2.3-8.5c6.8-26,11.4-52.7,14.1-78.7c0.8-7.5,1.4-14.9,1.9-22.2c0.8-0.1,1.5-0.2,2.2-0.2c3.4,0,5.9,1.5,7.7,4.3c2.8,4.3,3.7,11.7,3.3,20.9c-0.9,20.9-8.4,51.2-16.4,77.7C610.7,509.7,609.9,512.5,609,515.2z M432.5,699.5c-0.7,0.5-1.4,1-2.1,1.4c-2.8,1.4-5.9,2.4-9.2,2.4c-3,0-5.7-0.6-8.3-1.7c-0.2-0.1-0.3-0.2-0.5-0.3c-2.5-1.2-4.7-2.8-6.5-4.8c-3.4-3.7-5.6-8.6-5.6-14c0-0.2,0.1-0.3,0.1-0.5c0-0.5,0.2-0.8,0.3-1.3c0.3-3,1.2-5.8,2.6-8.3c0.2-0.3,0.4-0.6,0.6-0.9c1.6-2.5,3.7-4.6,6.2-6.2c2.6-1.7,5.5-2.8,8.7-3.2c0.8-0.1,1.6-0.5,2.4-0.5c3.4,0,6.5,1,9.3,2.4c3.3,1.7,5.9,4.2,7.9,7.3c1.6,2.5,2.7,5.3,3.1,8.3c0.1,0.7,0.4,1.3,0.4,2c0,0.3,0.2,0.5,0.2,0.8c0,2.8-0.6,5.5-1.6,8C438.8,694.3,435.9,697.3,432.5,699.5z M350.5,478.1c-0.3-2.9-0.6-5.8-0.9-8.7c-0.3-3.1-0.6-6.1-0.9-9.1c-1.7-18-3-35-3.9-49.7c-0.8-13.3-1.3-24.7-1.7-33.6c-0.5-12.8-0.6-20.4-0.6-20.4l17.5-0.1c0,0-0.3,8.8-0.4,23.5c-0.1,8.3-0.1,18.5,0,30.1c0.1,15.5,0.6,33.6,1.5,52.9c0.1,3,0.3,6,0.5,9c0.2,2.9,0.3,5.7,0.5,8.6c1,15.4,2.3,31.3,4,47.2c4.6,42.6,12.1,85.1,23.2,115.3c1.6,4.4,3.3,8.4,5.1,12.2c-0.5,0.5-0.9,1.1-1.4,1.6c-2.1-4-4.2-8.2-6.2-12.8c-12.8-30-22.5-72.4-29.3-115.1C354.6,511.8,352.4,494.6,350.5,478.1z M578.9,511c-0.8,2.7-1.5,5.4-2.4,8.1c-19.8,61.8-56.6,120.3-124.9,140.3c-7-9.2-18-15.3-30.4-15.3c-4.1,0-8,0.8-11.8,2c-1.2-2.7-2.5-5.7-3.8-9.3c-9.5-25.8-17.2-64.2-22.2-111.1c-1.5-14.2-2.7-28.1-3.6-41.6c-0.2-2.9-0.4-5.8-0.6-8.6c-0.2-3.1-0.3-6-0.5-9c35,7.3,71.4,14.3,109.1,20.8c31.9,5.6,63.2,10.5,93.6,15C580.6,505.3,579.7,508.2,578.9,511z" />
    </g>
</svg>